<mxfile host="app.diagrams.net" modified="2023-04-04T19:04:07.056Z" agent="Mozilla/5.0 (Windows NT 10.0; Win64; x64) AppleWebKit/537.36 (KHTML, like Gecko) Chrome/111.0.0.0 Safari/537.36" etag="Njje0MEJkmoYRGU4qmCn" version="21.1.2" type="github">
  <diagram id="C5RBs43oDa-KdzZeNtuy" name="Page-1">
    <mxGraphModel dx="926" dy="509" grid="1" gridSize="10" guides="1" tooltips="1" connect="1" arrows="1" fold="1" page="1" pageScale="1" pageWidth="827" pageHeight="1169" math="0" shadow="0">
      <root>
        <mxCell id="WIyWlLk6GJQsqaUBKTNV-0" />
        <mxCell id="WIyWlLk6GJQsqaUBKTNV-1" parent="WIyWlLk6GJQsqaUBKTNV-0" />
        <mxCell id="alA27K1LgbavTXRcBK-0-60" style="edgeStyle=orthogonalEdgeStyle;rounded=0;orthogonalLoop=1;jettySize=auto;html=1;entryX=0;entryY=0.5;entryDx=0;entryDy=0;" edge="1" parent="WIyWlLk6GJQsqaUBKTNV-1" source="7g69OASNnYOCCf8_o89a-0" target="alA27K1LgbavTXRcBK-0-58">
          <mxGeometry relative="1" as="geometry">
            <mxPoint x="530" y="90" as="targetPoint" />
          </mxGeometry>
        </mxCell>
        <mxCell id="7g69OASNnYOCCf8_o89a-0" value="O cliente seleciona um produto a ser comprado" style="rounded=1;whiteSpace=wrap;html=1;" parent="WIyWlLk6GJQsqaUBKTNV-1" vertex="1">
          <mxGeometry x="292.5" y="70" width="140" height="40" as="geometry" />
        </mxCell>
        <mxCell id="7g69OASNnYOCCf8_o89a-7" style="edgeStyle=orthogonalEdgeStyle;rounded=0;orthogonalLoop=1;jettySize=auto;html=1;exitX=1;exitY=0.5;exitDx=0;exitDy=0;entryX=0;entryY=0.5;entryDx=0;entryDy=0;" parent="WIyWlLk6GJQsqaUBKTNV-1" source="7g69OASNnYOCCf8_o89a-3" edge="1" target="7g69OASNnYOCCf8_o89a-8">
          <mxGeometry relative="1" as="geometry">
            <mxPoint x="440" y="357" as="targetPoint" />
          </mxGeometry>
        </mxCell>
        <mxCell id="7g69OASNnYOCCf8_o89a-3" value="O cliente efetua o pagamento" style="rounded=1;whiteSpace=wrap;html=1;" parent="WIyWlLk6GJQsqaUBKTNV-1" vertex="1">
          <mxGeometry x="170" y="337" width="130" height="40" as="geometry" />
        </mxCell>
        <mxCell id="7g69OASNnYOCCf8_o89a-13" style="edgeStyle=orthogonalEdgeStyle;rounded=0;orthogonalLoop=1;jettySize=auto;html=1;exitX=1;exitY=0.5;exitDx=0;exitDy=0;" parent="WIyWlLk6GJQsqaUBKTNV-1" source="7g69OASNnYOCCf8_o89a-8" target="7g69OASNnYOCCf8_o89a-12" edge="1">
          <mxGeometry relative="1" as="geometry" />
        </mxCell>
        <mxCell id="alA27K1LgbavTXRcBK-0-74" style="edgeStyle=orthogonalEdgeStyle;rounded=0;orthogonalLoop=1;jettySize=auto;html=1;exitX=0.5;exitY=1;exitDx=0;exitDy=0;" edge="1" parent="WIyWlLk6GJQsqaUBKTNV-1" source="7g69OASNnYOCCf8_o89a-8">
          <mxGeometry relative="1" as="geometry">
            <mxPoint x="230" y="381" as="targetPoint" />
            <Array as="points">
              <mxPoint x="545" y="430" />
              <mxPoint x="230" y="430" />
            </Array>
          </mxGeometry>
        </mxCell>
        <mxCell id="7g69OASNnYOCCf8_o89a-8" value="" style="rhombus;whiteSpace=wrap;html=1;" parent="WIyWlLk6GJQsqaUBKTNV-1" vertex="1">
          <mxGeometry x="520" y="333.5" width="50" height="47" as="geometry" />
        </mxCell>
        <mxCell id="7g69OASNnYOCCf8_o89a-43" style="edgeStyle=orthogonalEdgeStyle;rounded=0;orthogonalLoop=1;jettySize=auto;html=1;entryX=0.5;entryY=0;entryDx=0;entryDy=0;" parent="WIyWlLk6GJQsqaUBKTNV-1" source="7g69OASNnYOCCf8_o89a-12" target="7g69OASNnYOCCf8_o89a-42" edge="1">
          <mxGeometry relative="1" as="geometry" />
        </mxCell>
        <mxCell id="7g69OASNnYOCCf8_o89a-12" value="Informações do pedido e do cliente são enviadas ao sistema" style="rounded=1;whiteSpace=wrap;html=1;" parent="WIyWlLk6GJQsqaUBKTNV-1" vertex="1">
          <mxGeometry x="650" y="327" width="120" height="60" as="geometry" />
        </mxCell>
        <mxCell id="7g69OASNnYOCCf8_o89a-14" value="Sim" style="text;html=1;align=center;verticalAlign=middle;resizable=0;points=[];autosize=1;strokeColor=none;fillColor=none;" parent="WIyWlLk6GJQsqaUBKTNV-1" vertex="1">
          <mxGeometry x="590" y="327" width="40" height="30" as="geometry" />
        </mxCell>
        <mxCell id="7g69OASNnYOCCf8_o89a-15" value="Sistema de Entrega da Amazon" style="text;html=1;align=center;verticalAlign=middle;resizable=0;points=[];autosize=1;strokeColor=none;fillColor=none;fontSize=16;" parent="WIyWlLk6GJQsqaUBKTNV-1" vertex="1">
          <mxGeometry x="275" y="30" width="250" height="30" as="geometry" />
        </mxCell>
        <mxCell id="7g69OASNnYOCCf8_o89a-21" style="edgeStyle=orthogonalEdgeStyle;rounded=0;orthogonalLoop=1;jettySize=auto;html=1;exitX=0;exitY=0.5;exitDx=0;exitDy=0;entryX=0.5;entryY=1;entryDx=0;entryDy=0;" parent="WIyWlLk6GJQsqaUBKTNV-1" source="7g69OASNnYOCCf8_o89a-17" target="7g69OASNnYOCCf8_o89a-0" edge="1">
          <mxGeometry relative="1" as="geometry">
            <mxPoint x="72.44000000000005" y="467.7099999999999" as="targetPoint" />
          </mxGeometry>
        </mxCell>
        <mxCell id="alA27K1LgbavTXRcBK-0-71" style="edgeStyle=orthogonalEdgeStyle;rounded=0;orthogonalLoop=1;jettySize=auto;html=1;exitX=0.5;exitY=1;exitDx=0;exitDy=0;entryX=0.5;entryY=0;entryDx=0;entryDy=0;" edge="1" parent="WIyWlLk6GJQsqaUBKTNV-1" source="7g69OASNnYOCCf8_o89a-17" target="7g69OASNnYOCCf8_o89a-3">
          <mxGeometry relative="1" as="geometry" />
        </mxCell>
        <mxCell id="7g69OASNnYOCCf8_o89a-17" value="" style="rhombus;whiteSpace=wrap;html=1;" parent="WIyWlLk6GJQsqaUBKTNV-1" vertex="1">
          <mxGeometry x="220" y="191.75" width="30" height="36.5" as="geometry" />
        </mxCell>
        <mxCell id="alA27K1LgbavTXRcBK-0-52" style="edgeStyle=orthogonalEdgeStyle;rounded=0;orthogonalLoop=1;jettySize=auto;html=1;entryX=0;entryY=0.5;entryDx=0;entryDy=0;" edge="1" parent="WIyWlLk6GJQsqaUBKTNV-1" source="7g69OASNnYOCCf8_o89a-23" target="alA27K1LgbavTXRcBK-0-50">
          <mxGeometry relative="1" as="geometry" />
        </mxCell>
        <mxCell id="7g69OASNnYOCCf8_o89a-23" value="" style="ellipse;html=1;shape=startState;fillColor=#000000;strokeColor=#ff0000;" parent="WIyWlLk6GJQsqaUBKTNV-1" vertex="1">
          <mxGeometry x="25" y="75" width="30" height="30" as="geometry" />
        </mxCell>
        <mxCell id="7g69OASNnYOCCf8_o89a-29" style="edgeStyle=orthogonalEdgeStyle;rounded=0;orthogonalLoop=1;jettySize=auto;html=1;entryX=0;entryY=0.5;entryDx=0;entryDy=0;" parent="WIyWlLk6GJQsqaUBKTNV-1" source="7g69OASNnYOCCf8_o89a-27" target="7g69OASNnYOCCf8_o89a-30" edge="1">
          <mxGeometry relative="1" as="geometry">
            <mxPoint x="99.99999999999989" y="602" as="targetPoint" />
          </mxGeometry>
        </mxCell>
        <mxCell id="7g69OASNnYOCCf8_o89a-27" value="" style="ellipse;html=1;shape=startState;fillColor=#000000;strokeColor=#ff0000;" parent="WIyWlLk6GJQsqaUBKTNV-1" vertex="1">
          <mxGeometry x="11" y="587" width="29" height="30" as="geometry" />
        </mxCell>
        <mxCell id="7g69OASNnYOCCf8_o89a-38" style="edgeStyle=orthogonalEdgeStyle;rounded=0;orthogonalLoop=1;jettySize=auto;html=1;entryX=0.5;entryY=0;entryDx=0;entryDy=0;" parent="WIyWlLk6GJQsqaUBKTNV-1" source="7g69OASNnYOCCf8_o89a-30" target="7g69OASNnYOCCf8_o89a-34" edge="1">
          <mxGeometry relative="1" as="geometry" />
        </mxCell>
        <mxCell id="7g69OASNnYOCCf8_o89a-30" value="Produtos chegam em algum dos armazéns da Amazon" style="rounded=1;whiteSpace=wrap;html=1;" parent="WIyWlLk6GJQsqaUBKTNV-1" vertex="1">
          <mxGeometry x="105" y="563.25" width="120" height="77.5" as="geometry" />
        </mxCell>
        <mxCell id="7g69OASNnYOCCf8_o89a-37" style="edgeStyle=orthogonalEdgeStyle;rounded=0;orthogonalLoop=1;jettySize=auto;html=1;exitX=1;exitY=0.5;exitDx=0;exitDy=0;entryX=0;entryY=0.5;entryDx=0;entryDy=0;" parent="WIyWlLk6GJQsqaUBKTNV-1" source="7g69OASNnYOCCf8_o89a-34" target="7g69OASNnYOCCf8_o89a-35" edge="1">
          <mxGeometry relative="1" as="geometry" />
        </mxCell>
        <mxCell id="7g69OASNnYOCCf8_o89a-34" value="Os funcionários descarregam os produtos" style="rounded=1;whiteSpace=wrap;html=1;" parent="WIyWlLk6GJQsqaUBKTNV-1" vertex="1">
          <mxGeometry x="90" y="697" width="150" height="60" as="geometry" />
        </mxCell>
        <mxCell id="7g69OASNnYOCCf8_o89a-41" style="rounded=0;orthogonalLoop=1;jettySize=auto;html=1;entryX=0.5;entryY=0;entryDx=0;entryDy=0;exitX=0.562;exitY=1.006;exitDx=0;exitDy=0;exitPerimeter=0;" parent="WIyWlLk6GJQsqaUBKTNV-1" source="7g69OASNnYOCCf8_o89a-35" target="7g69OASNnYOCCf8_o89a-39" edge="1">
          <mxGeometry relative="1" as="geometry">
            <mxPoint x="370" y="637" as="sourcePoint" />
          </mxGeometry>
        </mxCell>
        <mxCell id="7g69OASNnYOCCf8_o89a-35" value="Os funcionários checam todos os produtos em todas as caixas" style="rounded=1;whiteSpace=wrap;html=1;" parent="WIyWlLk6GJQsqaUBKTNV-1" vertex="1">
          <mxGeometry x="285" y="574" width="140" height="56" as="geometry" />
        </mxCell>
        <mxCell id="7g69OASNnYOCCf8_o89a-47" style="edgeStyle=orthogonalEdgeStyle;rounded=0;orthogonalLoop=1;jettySize=auto;html=1;exitX=1;exitY=0.5;exitDx=0;exitDy=0;entryX=0.458;entryY=1.017;entryDx=0;entryDy=0;entryPerimeter=0;" parent="WIyWlLk6GJQsqaUBKTNV-1" source="7g69OASNnYOCCf8_o89a-39" target="7g69OASNnYOCCf8_o89a-44" edge="1">
          <mxGeometry relative="1" as="geometry">
            <mxPoint x="540" y="567" as="targetPoint" />
          </mxGeometry>
        </mxCell>
        <mxCell id="7g69OASNnYOCCf8_o89a-39" value="Os funcionários colocam os produtos em seus devidos carrinhos e escaneiam seus QR codes" style="rounded=1;whiteSpace=wrap;html=1;" parent="WIyWlLk6GJQsqaUBKTNV-1" vertex="1">
          <mxGeometry x="280" y="687" width="165" height="70" as="geometry" />
        </mxCell>
        <mxCell id="7g69OASNnYOCCf8_o89a-50" style="edgeStyle=orthogonalEdgeStyle;rounded=0;orthogonalLoop=1;jettySize=auto;html=1;exitX=0.5;exitY=1;exitDx=0;exitDy=0;entryX=0.5;entryY=0;entryDx=0;entryDy=0;" parent="WIyWlLk6GJQsqaUBKTNV-1" source="7g69OASNnYOCCf8_o89a-42" target="7g69OASNnYOCCf8_o89a-48" edge="1">
          <mxGeometry relative="1" as="geometry" />
        </mxCell>
        <mxCell id="7g69OASNnYOCCf8_o89a-42" value="O sistema vê se há o produto no estoque" style="rounded=1;whiteSpace=wrap;html=1;" parent="WIyWlLk6GJQsqaUBKTNV-1" vertex="1">
          <mxGeometry x="650" y="477" width="120" height="60" as="geometry" />
        </mxCell>
        <mxCell id="7g69OASNnYOCCf8_o89a-57" style="rounded=0;orthogonalLoop=1;jettySize=auto;html=1;exitX=1;exitY=0;exitDx=0;exitDy=0;entryX=0;entryY=1;entryDx=0;entryDy=0;" parent="WIyWlLk6GJQsqaUBKTNV-1" source="7g69OASNnYOCCf8_o89a-44" target="7g69OASNnYOCCf8_o89a-12" edge="1">
          <mxGeometry relative="1" as="geometry" />
        </mxCell>
        <mxCell id="7g69OASNnYOCCf8_o89a-44" value="O sistema armazena os dados dos produtos no sistema" style="rounded=1;whiteSpace=wrap;html=1;" parent="WIyWlLk6GJQsqaUBKTNV-1" vertex="1">
          <mxGeometry x="414" y="477" width="120" height="60" as="geometry" />
        </mxCell>
        <mxCell id="7g69OASNnYOCCf8_o89a-52" style="edgeStyle=orthogonalEdgeStyle;rounded=0;orthogonalLoop=1;jettySize=auto;html=1;entryX=1;entryY=0.5;entryDx=0;entryDy=0;" parent="WIyWlLk6GJQsqaUBKTNV-1" source="7g69OASNnYOCCf8_o89a-48" target="7g69OASNnYOCCf8_o89a-49" edge="1">
          <mxGeometry relative="1" as="geometry" />
        </mxCell>
        <mxCell id="7g69OASNnYOCCf8_o89a-55" style="edgeStyle=orthogonalEdgeStyle;rounded=0;orthogonalLoop=1;jettySize=auto;html=1;" parent="WIyWlLk6GJQsqaUBKTNV-1" source="7g69OASNnYOCCf8_o89a-48" edge="1">
          <mxGeometry relative="1" as="geometry">
            <mxPoint x="710" y="777" as="targetPoint" />
          </mxGeometry>
        </mxCell>
        <mxCell id="7g69OASNnYOCCf8_o89a-48" value="" style="rhombus;whiteSpace=wrap;html=1;" parent="WIyWlLk6GJQsqaUBKTNV-1" vertex="1">
          <mxGeometry x="670" y="587" width="80" height="80" as="geometry" />
        </mxCell>
        <mxCell id="7g69OASNnYOCCf8_o89a-49" value="" style="ellipse;html=1;shape=endState;fillColor=#000000;strokeColor=#ff0000;" parent="WIyWlLk6GJQsqaUBKTNV-1" vertex="1">
          <mxGeometry x="520" y="612" width="30" height="30" as="geometry" />
        </mxCell>
        <mxCell id="7g69OASNnYOCCf8_o89a-54" value="Não há unidades do produto no estoque" style="text;strokeColor=none;align=center;fillColor=none;html=1;verticalAlign=middle;whiteSpace=wrap;rounded=0;" parent="WIyWlLk6GJQsqaUBKTNV-1" vertex="1">
          <mxGeometry x="550" y="587" width="140" height="30" as="geometry" />
        </mxCell>
        <mxCell id="7g69OASNnYOCCf8_o89a-56" value="Há unidades do produto no estoque" style="text;html=1;align=center;verticalAlign=middle;resizable=0;points=[];autosize=1;strokeColor=none;fillColor=none;labelBackgroundColor=default;" parent="WIyWlLk6GJQsqaUBKTNV-1" vertex="1">
          <mxGeometry x="600" y="697" width="210" height="30" as="geometry" />
        </mxCell>
        <mxCell id="alA27K1LgbavTXRcBK-0-2" style="edgeStyle=orthogonalEdgeStyle;rounded=0;orthogonalLoop=1;jettySize=auto;html=1;entryX=1;entryY=0.5;entryDx=0;entryDy=0;" edge="1" parent="WIyWlLk6GJQsqaUBKTNV-1" source="alA27K1LgbavTXRcBK-0-0" target="alA27K1LgbavTXRcBK-0-1">
          <mxGeometry relative="1" as="geometry" />
        </mxCell>
        <mxCell id="alA27K1LgbavTXRcBK-0-0" value="O sistema diz ao funcionário em qual local do estoque o produto está" style="rounded=1;whiteSpace=wrap;html=1;" vertex="1" parent="WIyWlLk6GJQsqaUBKTNV-1">
          <mxGeometry x="650" y="777" width="120" height="60" as="geometry" />
        </mxCell>
        <mxCell id="alA27K1LgbavTXRcBK-0-4" style="edgeStyle=orthogonalEdgeStyle;rounded=0;orthogonalLoop=1;jettySize=auto;html=1;exitX=0;exitY=0.5;exitDx=0;exitDy=0;entryX=1.015;entryY=0.381;entryDx=0;entryDy=0;entryPerimeter=0;" edge="1" parent="WIyWlLk6GJQsqaUBKTNV-1" source="alA27K1LgbavTXRcBK-0-1" target="alA27K1LgbavTXRcBK-0-3">
          <mxGeometry relative="1" as="geometry">
            <mxPoint x="380" y="807" as="targetPoint" />
          </mxGeometry>
        </mxCell>
        <mxCell id="alA27K1LgbavTXRcBK-0-1" value="O funcionário põe o produto em uma caixa laranja e a põe em uma esteira" style="rounded=1;whiteSpace=wrap;html=1;" vertex="1" parent="WIyWlLk6GJQsqaUBKTNV-1">
          <mxGeometry x="450" y="777" width="120" height="60" as="geometry" />
        </mxCell>
        <mxCell id="alA27K1LgbavTXRcBK-0-8" style="edgeStyle=orthogonalEdgeStyle;rounded=0;orthogonalLoop=1;jettySize=auto;html=1;entryX=1;entryY=0.5;entryDx=0;entryDy=0;" edge="1" parent="WIyWlLk6GJQsqaUBKTNV-1" source="alA27K1LgbavTXRcBK-0-3" target="alA27K1LgbavTXRcBK-0-5">
          <mxGeometry relative="1" as="geometry" />
        </mxCell>
        <mxCell id="alA27K1LgbavTXRcBK-0-3" value="A esteira leva a caixa laranja para o alguma das estações de trabalho" style="rounded=1;whiteSpace=wrap;html=1;" vertex="1" parent="WIyWlLk6GJQsqaUBKTNV-1">
          <mxGeometry x="240" y="777" width="130" height="80" as="geometry" />
        </mxCell>
        <mxCell id="alA27K1LgbavTXRcBK-0-10" style="edgeStyle=orthogonalEdgeStyle;rounded=0;orthogonalLoop=1;jettySize=auto;html=1;entryX=0.5;entryY=0;entryDx=0;entryDy=0;" edge="1" parent="WIyWlLk6GJQsqaUBKTNV-1" source="alA27K1LgbavTXRcBK-0-5" target="alA27K1LgbavTXRcBK-0-9">
          <mxGeometry relative="1" as="geometry" />
        </mxCell>
        <mxCell id="alA27K1LgbavTXRcBK-0-5" value="O funcionário nesta estação de trabalho escaneia o produto&amp;nbsp; e o armazena em uma estante de nichos" style="rounded=1;whiteSpace=wrap;html=1;" vertex="1" parent="WIyWlLk6GJQsqaUBKTNV-1">
          <mxGeometry x="60" y="777" width="140" height="80" as="geometry" />
        </mxCell>
        <mxCell id="alA27K1LgbavTXRcBK-0-21" style="edgeStyle=orthogonalEdgeStyle;rounded=0;orthogonalLoop=1;jettySize=auto;html=1;exitX=0.5;exitY=1;exitDx=0;exitDy=0;entryX=0.5;entryY=0;entryDx=0;entryDy=0;" edge="1" parent="WIyWlLk6GJQsqaUBKTNV-1" source="alA27K1LgbavTXRcBK-0-9" target="alA27K1LgbavTXRcBK-0-11">
          <mxGeometry relative="1" as="geometry" />
        </mxCell>
        <mxCell id="alA27K1LgbavTXRcBK-0-9" value="A estante é transportada para outro local" style="rounded=1;whiteSpace=wrap;html=1;" vertex="1" parent="WIyWlLk6GJQsqaUBKTNV-1">
          <mxGeometry x="60" y="897" width="140" height="60" as="geometry" />
        </mxCell>
        <mxCell id="alA27K1LgbavTXRcBK-0-22" style="edgeStyle=orthogonalEdgeStyle;rounded=0;orthogonalLoop=1;jettySize=auto;html=1;exitX=1;exitY=0.5;exitDx=0;exitDy=0;" edge="1" parent="WIyWlLk6GJQsqaUBKTNV-1" source="alA27K1LgbavTXRcBK-0-11" target="alA27K1LgbavTXRcBK-0-13">
          <mxGeometry relative="1" as="geometry" />
        </mxCell>
        <mxCell id="alA27K1LgbavTXRcBK-0-11" value="Neste local, um funcionário irá escanear o produto para checar em qual caixa deve embalar o produto" style="rounded=1;whiteSpace=wrap;html=1;" vertex="1" parent="WIyWlLk6GJQsqaUBKTNV-1">
          <mxGeometry x="50" y="997" width="160" height="80" as="geometry" />
        </mxCell>
        <mxCell id="alA27K1LgbavTXRcBK-0-25" style="edgeStyle=orthogonalEdgeStyle;rounded=0;orthogonalLoop=1;jettySize=auto;html=1;entryX=0.5;entryY=1;entryDx=0;entryDy=0;" edge="1" parent="WIyWlLk6GJQsqaUBKTNV-1" source="alA27K1LgbavTXRcBK-0-13" target="alA27K1LgbavTXRcBK-0-23">
          <mxGeometry relative="1" as="geometry" />
        </mxCell>
        <mxCell id="alA27K1LgbavTXRcBK-0-13" value="O sistema indicará a devida caixa para o produto com base no peso do produto" style="rounded=1;whiteSpace=wrap;html=1;" vertex="1" parent="WIyWlLk6GJQsqaUBKTNV-1">
          <mxGeometry x="290" y="1007" width="165" height="60" as="geometry" />
        </mxCell>
        <mxCell id="alA27K1LgbavTXRcBK-0-14" style="edgeStyle=orthogonalEdgeStyle;rounded=0;orthogonalLoop=1;jettySize=auto;html=1;entryX=0;entryY=0.5;entryDx=0;entryDy=0;" edge="1" target="alA27K1LgbavTXRcBK-0-16" parent="WIyWlLk6GJQsqaUBKTNV-1">
          <mxGeometry relative="1" as="geometry">
            <mxPoint x="99.99999999999989" y="602" as="targetPoint" />
            <mxPoint x="40" y="602" as="sourcePoint" />
          </mxGeometry>
        </mxCell>
        <mxCell id="alA27K1LgbavTXRcBK-0-15" style="edgeStyle=orthogonalEdgeStyle;rounded=0;orthogonalLoop=1;jettySize=auto;html=1;entryX=0.5;entryY=0;entryDx=0;entryDy=0;" edge="1" source="alA27K1LgbavTXRcBK-0-16" target="alA27K1LgbavTXRcBK-0-20" parent="WIyWlLk6GJQsqaUBKTNV-1">
          <mxGeometry relative="1" as="geometry" />
        </mxCell>
        <mxCell id="alA27K1LgbavTXRcBK-0-16" value="Produtos chegam em algum dos armazéns da Amazon" style="rounded=1;whiteSpace=wrap;html=1;" vertex="1" parent="WIyWlLk6GJQsqaUBKTNV-1">
          <mxGeometry x="105" y="563.25" width="120" height="77.5" as="geometry" />
        </mxCell>
        <mxCell id="alA27K1LgbavTXRcBK-0-17" style="edgeStyle=orthogonalEdgeStyle;rounded=0;orthogonalLoop=1;jettySize=auto;html=1;exitX=1;exitY=0.5;exitDx=0;exitDy=0;entryX=0;entryY=0.5;entryDx=0;entryDy=0;" edge="1" source="alA27K1LgbavTXRcBK-0-20" target="alA27K1LgbavTXRcBK-0-19" parent="WIyWlLk6GJQsqaUBKTNV-1">
          <mxGeometry relative="1" as="geometry" />
        </mxCell>
        <mxCell id="alA27K1LgbavTXRcBK-0-18" style="rounded=0;orthogonalLoop=1;jettySize=auto;html=1;entryX=0.5;entryY=0;entryDx=0;entryDy=0;exitX=0.562;exitY=1.006;exitDx=0;exitDy=0;exitPerimeter=0;" edge="1" source="alA27K1LgbavTXRcBK-0-19" parent="WIyWlLk6GJQsqaUBKTNV-1">
          <mxGeometry relative="1" as="geometry">
            <mxPoint x="370" y="637" as="sourcePoint" />
            <mxPoint x="363" y="687" as="targetPoint" />
          </mxGeometry>
        </mxCell>
        <mxCell id="alA27K1LgbavTXRcBK-0-19" value="Os funcionários checam todos os produtos em todas as caixas" style="rounded=1;whiteSpace=wrap;html=1;" vertex="1" parent="WIyWlLk6GJQsqaUBKTNV-1">
          <mxGeometry x="285" y="574" width="140" height="56" as="geometry" />
        </mxCell>
        <mxCell id="alA27K1LgbavTXRcBK-0-20" value="Os funcionários descarregam os produtos" style="rounded=1;whiteSpace=wrap;html=1;" vertex="1" parent="WIyWlLk6GJQsqaUBKTNV-1">
          <mxGeometry x="90" y="697" width="150" height="60" as="geometry" />
        </mxCell>
        <mxCell id="alA27K1LgbavTXRcBK-0-28" style="edgeStyle=orthogonalEdgeStyle;rounded=0;orthogonalLoop=1;jettySize=auto;html=1;exitX=1;exitY=0.5;exitDx=0;exitDy=0;entryX=0;entryY=0.5;entryDx=0;entryDy=0;" edge="1" parent="WIyWlLk6GJQsqaUBKTNV-1" source="alA27K1LgbavTXRcBK-0-23" target="alA27K1LgbavTXRcBK-0-26">
          <mxGeometry relative="1" as="geometry" />
        </mxCell>
        <mxCell id="alA27K1LgbavTXRcBK-0-23" value="O funcionário irá embalar o produto na caixa escolhida pelo sistema" style="rounded=1;whiteSpace=wrap;html=1;" vertex="1" parent="WIyWlLk6GJQsqaUBKTNV-1">
          <mxGeometry x="292" y="897" width="163" height="60" as="geometry" />
        </mxCell>
        <mxCell id="alA27K1LgbavTXRcBK-0-31" style="edgeStyle=orthogonalEdgeStyle;rounded=0;orthogonalLoop=1;jettySize=auto;html=1;exitX=0.5;exitY=1;exitDx=0;exitDy=0;entryX=0.5;entryY=0;entryDx=0;entryDy=0;" edge="1" parent="WIyWlLk6GJQsqaUBKTNV-1" source="alA27K1LgbavTXRcBK-0-26" target="alA27K1LgbavTXRcBK-0-29">
          <mxGeometry relative="1" as="geometry" />
        </mxCell>
        <mxCell id="alA27K1LgbavTXRcBK-0-26" value="O funcionário põe a caixa, que contém o produto, em uma esteira" style="rounded=1;whiteSpace=wrap;html=1;" vertex="1" parent="WIyWlLk6GJQsqaUBKTNV-1">
          <mxGeometry x="600" y="897" width="160" height="60" as="geometry" />
        </mxCell>
        <mxCell id="alA27K1LgbavTXRcBK-0-32" style="edgeStyle=orthogonalEdgeStyle;rounded=0;orthogonalLoop=1;jettySize=auto;html=1;exitX=0.5;exitY=1;exitDx=0;exitDy=0;entryX=0.5;entryY=0;entryDx=0;entryDy=0;" edge="1" parent="WIyWlLk6GJQsqaUBKTNV-1" source="alA27K1LgbavTXRcBK-0-29" target="alA27K1LgbavTXRcBK-0-30">
          <mxGeometry relative="1" as="geometry" />
        </mxCell>
        <mxCell id="alA27K1LgbavTXRcBK-0-29" value="A esteira leva o produto para outra estação de trabalho" style="rounded=1;whiteSpace=wrap;html=1;" vertex="1" parent="WIyWlLk6GJQsqaUBKTNV-1">
          <mxGeometry x="600" y="1007" width="160" height="60" as="geometry" />
        </mxCell>
        <mxCell id="alA27K1LgbavTXRcBK-0-34" style="edgeStyle=orthogonalEdgeStyle;rounded=0;orthogonalLoop=1;jettySize=auto;html=1;entryX=1;entryY=0.5;entryDx=0;entryDy=0;" edge="1" parent="WIyWlLk6GJQsqaUBKTNV-1" source="alA27K1LgbavTXRcBK-0-30" target="alA27K1LgbavTXRcBK-0-33">
          <mxGeometry relative="1" as="geometry" />
        </mxCell>
        <mxCell id="alA27K1LgbavTXRcBK-0-30" value="Nesta outra estação de trabalho, um funcionário pesa o produto" style="rounded=1;whiteSpace=wrap;html=1;" vertex="1" parent="WIyWlLk6GJQsqaUBKTNV-1">
          <mxGeometry x="600" y="1107" width="160" height="60" as="geometry" />
        </mxCell>
        <mxCell id="alA27K1LgbavTXRcBK-0-36" style="edgeStyle=orthogonalEdgeStyle;rounded=0;orthogonalLoop=1;jettySize=auto;html=1;exitX=0;exitY=0.5;exitDx=0;exitDy=0;" edge="1" parent="WIyWlLk6GJQsqaUBKTNV-1" source="alA27K1LgbavTXRcBK-0-33" target="alA27K1LgbavTXRcBK-0-35">
          <mxGeometry relative="1" as="geometry" />
        </mxCell>
        <mxCell id="alA27K1LgbavTXRcBK-0-33" value="O funcionário escaneia o código de barras do produto" style="rounded=1;whiteSpace=wrap;html=1;" vertex="1" parent="WIyWlLk6GJQsqaUBKTNV-1">
          <mxGeometry x="400" y="1107" width="150" height="60" as="geometry" />
        </mxCell>
        <mxCell id="alA27K1LgbavTXRcBK-0-38" style="edgeStyle=orthogonalEdgeStyle;rounded=0;orthogonalLoop=1;jettySize=auto;html=1;exitX=0;exitY=0.5;exitDx=0;exitDy=0;entryX=0.5;entryY=0;entryDx=0;entryDy=0;" edge="1" parent="WIyWlLk6GJQsqaUBKTNV-1" source="alA27K1LgbavTXRcBK-0-35" target="alA27K1LgbavTXRcBK-0-37">
          <mxGeometry relative="1" as="geometry">
            <mxPoint x="80" y="1136.9473684210527" as="targetPoint" />
          </mxGeometry>
        </mxCell>
        <mxCell id="alA27K1LgbavTXRcBK-0-35" value="O sistema mostra o nome e o endereço do cliente" style="rounded=1;whiteSpace=wrap;html=1;" vertex="1" parent="WIyWlLk6GJQsqaUBKTNV-1">
          <mxGeometry x="180" y="1107" width="145" height="60" as="geometry" />
        </mxCell>
        <mxCell id="alA27K1LgbavTXRcBK-0-40" style="edgeStyle=orthogonalEdgeStyle;rounded=0;orthogonalLoop=1;jettySize=auto;html=1;entryX=0;entryY=0.5;entryDx=0;entryDy=0;" edge="1" parent="WIyWlLk6GJQsqaUBKTNV-1" source="alA27K1LgbavTXRcBK-0-37" target="alA27K1LgbavTXRcBK-0-39">
          <mxGeometry relative="1" as="geometry" />
        </mxCell>
        <mxCell id="alA27K1LgbavTXRcBK-0-37" value="O funcionário põe o produto em outra esteira que leva para a saída do armazém" style="rounded=1;whiteSpace=wrap;html=1;" vertex="1" parent="WIyWlLk6GJQsqaUBKTNV-1">
          <mxGeometry x="25" y="1207" width="130" height="60" as="geometry" />
        </mxCell>
        <mxCell id="alA27K1LgbavTXRcBK-0-42" style="edgeStyle=orthogonalEdgeStyle;rounded=0;orthogonalLoop=1;jettySize=auto;html=1;" edge="1" parent="WIyWlLk6GJQsqaUBKTNV-1" source="alA27K1LgbavTXRcBK-0-39">
          <mxGeometry relative="1" as="geometry">
            <mxPoint x="410" y="1237" as="targetPoint" />
          </mxGeometry>
        </mxCell>
        <mxCell id="alA27K1LgbavTXRcBK-0-39" value="Na saída, é produzida a nota fiscal do produto" style="rounded=1;whiteSpace=wrap;html=1;" vertex="1" parent="WIyWlLk6GJQsqaUBKTNV-1">
          <mxGeometry x="200" y="1207" width="150" height="60" as="geometry" />
        </mxCell>
        <mxCell id="alA27K1LgbavTXRcBK-0-45" style="edgeStyle=orthogonalEdgeStyle;rounded=0;orthogonalLoop=1;jettySize=auto;html=1;exitX=1;exitY=0.5;exitDx=0;exitDy=0;" edge="1" parent="WIyWlLk6GJQsqaUBKTNV-1" source="alA27K1LgbavTXRcBK-0-41" target="alA27K1LgbavTXRcBK-0-43">
          <mxGeometry relative="1" as="geometry" />
        </mxCell>
        <mxCell id="alA27K1LgbavTXRcBK-0-41" value="o produto será separado por região com base no endereço do cliente" style="rounded=1;whiteSpace=wrap;html=1;" vertex="1" parent="WIyWlLk6GJQsqaUBKTNV-1">
          <mxGeometry x="415" y="1207" width="120" height="60" as="geometry" />
        </mxCell>
        <mxCell id="alA27K1LgbavTXRcBK-0-47" style="edgeStyle=orthogonalEdgeStyle;rounded=0;orthogonalLoop=1;jettySize=auto;html=1;entryX=0.5;entryY=0;entryDx=0;entryDy=0;" edge="1" parent="WIyWlLk6GJQsqaUBKTNV-1" source="alA27K1LgbavTXRcBK-0-43" target="alA27K1LgbavTXRcBK-0-46">
          <mxGeometry relative="1" as="geometry" />
        </mxCell>
        <mxCell id="alA27K1LgbavTXRcBK-0-43" value="O produto será posto no devido caminhão de entregas junto de outros produtos que serão entregues na mesma região" style="rounded=1;whiteSpace=wrap;html=1;" vertex="1" parent="WIyWlLk6GJQsqaUBKTNV-1">
          <mxGeometry x="610" y="1197" width="170" height="80" as="geometry" />
        </mxCell>
        <mxCell id="alA27K1LgbavTXRcBK-0-48" style="edgeStyle=orthogonalEdgeStyle;rounded=0;orthogonalLoop=1;jettySize=auto;html=1;" edge="1" parent="WIyWlLk6GJQsqaUBKTNV-1" source="alA27K1LgbavTXRcBK-0-46">
          <mxGeometry relative="1" as="geometry">
            <mxPoint x="520.0000000000002" y="1347" as="targetPoint" />
          </mxGeometry>
        </mxCell>
        <mxCell id="alA27K1LgbavTXRcBK-0-46" value="O produto é entregue na casa do cliente" style="rounded=1;whiteSpace=wrap;html=1;" vertex="1" parent="WIyWlLk6GJQsqaUBKTNV-1">
          <mxGeometry x="635" y="1317" width="120" height="60" as="geometry" />
        </mxCell>
        <mxCell id="alA27K1LgbavTXRcBK-0-49" value="" style="ellipse;html=1;shape=endState;fillColor=#000000;strokeColor=#ff0000;" vertex="1" parent="WIyWlLk6GJQsqaUBKTNV-1">
          <mxGeometry x="491" y="1332" width="30" height="30" as="geometry" />
        </mxCell>
        <mxCell id="alA27K1LgbavTXRcBK-0-53" style="edgeStyle=orthogonalEdgeStyle;rounded=0;orthogonalLoop=1;jettySize=auto;html=1;exitX=1;exitY=0.5;exitDx=0;exitDy=0;" edge="1" parent="WIyWlLk6GJQsqaUBKTNV-1" source="alA27K1LgbavTXRcBK-0-50" target="7g69OASNnYOCCf8_o89a-0">
          <mxGeometry relative="1" as="geometry" />
        </mxCell>
        <mxCell id="alA27K1LgbavTXRcBK-0-50" value="O cliente acessa o aplicativo ou site da Amazon" style="rounded=1;whiteSpace=wrap;html=1;" vertex="1" parent="WIyWlLk6GJQsqaUBKTNV-1">
          <mxGeometry x="105" y="60" width="120" height="60" as="geometry" />
        </mxCell>
        <mxCell id="alA27K1LgbavTXRcBK-0-68" style="edgeStyle=orthogonalEdgeStyle;rounded=0;orthogonalLoop=1;jettySize=auto;html=1;" edge="1" parent="WIyWlLk6GJQsqaUBKTNV-1" source="alA27K1LgbavTXRcBK-0-54" target="7g69OASNnYOCCf8_o89a-17">
          <mxGeometry relative="1" as="geometry" />
        </mxCell>
        <mxCell id="alA27K1LgbavTXRcBK-0-54" value="O produto é adicionado ao &quot;carrinho&quot;" style="rounded=1;whiteSpace=wrap;html=1;" vertex="1" parent="WIyWlLk6GJQsqaUBKTNV-1">
          <mxGeometry x="590" y="190" width="170" height="40" as="geometry" />
        </mxCell>
        <mxCell id="alA27K1LgbavTXRcBK-0-57" style="edgeStyle=orthogonalEdgeStyle;rounded=0;orthogonalLoop=1;jettySize=auto;html=1;exitX=0.5;exitY=1;exitDx=0;exitDy=0;" edge="1" parent="WIyWlLk6GJQsqaUBKTNV-1" source="7g69OASNnYOCCf8_o89a-17" target="7g69OASNnYOCCf8_o89a-17">
          <mxGeometry relative="1" as="geometry" />
        </mxCell>
        <mxCell id="alA27K1LgbavTXRcBK-0-64" style="edgeStyle=orthogonalEdgeStyle;rounded=0;orthogonalLoop=1;jettySize=auto;html=1;exitX=0.5;exitY=1;exitDx=0;exitDy=0;" edge="1" parent="WIyWlLk6GJQsqaUBKTNV-1" source="alA27K1LgbavTXRcBK-0-58">
          <mxGeometry relative="1" as="geometry">
            <mxPoint x="668" y="190" as="targetPoint" />
          </mxGeometry>
        </mxCell>
        <mxCell id="alA27K1LgbavTXRcBK-0-66" style="edgeStyle=orthogonalEdgeStyle;rounded=0;orthogonalLoop=1;jettySize=auto;html=1;exitX=0;exitY=1;exitDx=0;exitDy=0;entryX=0.89;entryY=1.025;entryDx=0;entryDy=0;entryPerimeter=0;" edge="1" parent="WIyWlLk6GJQsqaUBKTNV-1" source="alA27K1LgbavTXRcBK-0-58" target="7g69OASNnYOCCf8_o89a-0">
          <mxGeometry relative="1" as="geometry">
            <mxPoint x="410" y="140" as="targetPoint" />
            <Array as="points">
              <mxPoint x="657" y="130" />
              <mxPoint x="417" y="130" />
            </Array>
          </mxGeometry>
        </mxCell>
        <mxCell id="alA27K1LgbavTXRcBK-0-58" value="" style="rhombus;whiteSpace=wrap;html=1;" vertex="1" parent="WIyWlLk6GJQsqaUBKTNV-1">
          <mxGeometry x="646" y="70" width="44" height="40" as="geometry" />
        </mxCell>
        <mxCell id="alA27K1LgbavTXRcBK-0-61" value="O cliente quer comprar o produto?" style="text;html=1;align=center;verticalAlign=middle;resizable=0;points=[];autosize=1;strokeColor=none;fillColor=none;" vertex="1" parent="WIyWlLk6GJQsqaUBKTNV-1">
          <mxGeometry x="432.5" y="60" width="210" height="30" as="geometry" />
        </mxCell>
        <mxCell id="alA27K1LgbavTXRcBK-0-65" value="Sim" style="text;html=1;align=center;verticalAlign=middle;resizable=0;points=[];autosize=1;strokeColor=none;fillColor=none;labelBackgroundColor=default;" vertex="1" parent="WIyWlLk6GJQsqaUBKTNV-1">
          <mxGeometry x="646" y="140" width="40" height="30" as="geometry" />
        </mxCell>
        <mxCell id="alA27K1LgbavTXRcBK-0-67" value="Não" style="text;html=1;align=center;verticalAlign=middle;resizable=0;points=[];autosize=1;strokeColor=none;fillColor=none;" vertex="1" parent="WIyWlLk6GJQsqaUBKTNV-1">
          <mxGeometry x="510" y="105" width="50" height="30" as="geometry" />
        </mxCell>
        <mxCell id="alA27K1LgbavTXRcBK-0-69" value="O cliente deseja comprar mais produtos?" style="text;html=1;align=center;verticalAlign=middle;resizable=0;points=[];autosize=1;strokeColor=none;fillColor=none;" vertex="1" parent="WIyWlLk6GJQsqaUBKTNV-1">
          <mxGeometry x="300" y="180" width="240" height="30" as="geometry" />
        </mxCell>
        <mxCell id="alA27K1LgbavTXRcBK-0-70" value="Sim" style="text;html=1;align=center;verticalAlign=middle;resizable=0;points=[];autosize=1;strokeColor=none;fillColor=none;" vertex="1" parent="WIyWlLk6GJQsqaUBKTNV-1">
          <mxGeometry x="252.5" y="120" width="40" height="30" as="geometry" />
        </mxCell>
        <mxCell id="alA27K1LgbavTXRcBK-0-72" value="Não" style="text;html=1;align=center;verticalAlign=middle;resizable=0;points=[];autosize=1;strokeColor=none;fillColor=none;labelBackgroundColor=default;" vertex="1" parent="WIyWlLk6GJQsqaUBKTNV-1">
          <mxGeometry x="210" y="265" width="50" height="30" as="geometry" />
        </mxCell>
        <mxCell id="alA27K1LgbavTXRcBK-0-73" value="O pagamento é válido?" style="text;html=1;align=center;verticalAlign=middle;resizable=0;points=[];autosize=1;strokeColor=none;fillColor=none;" vertex="1" parent="WIyWlLk6GJQsqaUBKTNV-1">
          <mxGeometry x="337.5" y="327" width="150" height="30" as="geometry" />
        </mxCell>
        <mxCell id="alA27K1LgbavTXRcBK-0-75" value="Não" style="text;html=1;align=center;verticalAlign=middle;resizable=0;points=[];autosize=1;strokeColor=none;fillColor=none;" vertex="1" parent="WIyWlLk6GJQsqaUBKTNV-1">
          <mxGeometry x="337.5" y="400" width="50" height="30" as="geometry" />
        </mxCell>
      </root>
    </mxGraphModel>
  </diagram>
</mxfile>
